Patient4_TMGait_0pt5_02_left_20_EMG.mot
version=1
nRows=36
nColumns=33
inDegrees=no
endheader
time	1LAddLong	2LGlutMax	3LGlutMed	4LIliopsoas	5LSemiMemb	6LBicFemLong	7LRecFem	8LVastMed	9LVastLat	10LGasMed	11LTibAnt	12lTibPost	13LPeroneusLong	14LSol	15LExtDigLong	16LFlexDigLong	17RAddLong	18RGlutMax	19RGlutMed	20RIliopsoas	21RSemiMemb	22RBicFemLong	23RRecFem	24RVastMed	25RVastLat	26RGasMed	27RTibAnt	28RTibPost	29RPeroneusLong	30RSol	31RExtDigLong	32RFlexDigLong
25.34	0.021973	0.16007	-0.041809	0.012054	0.001068	-0.044556	-0.00473	0.016785	-0.045166	-0.011597	0.002441	0.003967	0.03952	0.045776	0.034637	-0.009155	0.031433	-0.16998	-0.18097	0.091553	0.068817	-0.50674	-0.038757	-0.023193	0.06958	-0.13977	-0.11704	-0.009308	0.65857	0.049438	-0.003662	-0.006104
25.341	0.024414	0.16785	-0.040131	0.017853	0.004272	-0.024872	-0.042419	0.026855	-0.007935	-0.017548	-0.039825	0.001526	0.099792	-0.028687	0.076599	-0.00946	-0.009918	-0.09552	0.027466	0.10819	-0.009918	-0.44281	-0.034637	0.064697	0.054626	-0.2623	-0.33203	0.001221	0.098267	-0.018768	-0.001526	0.001221
25.342	0.014191	0.11566	-0.032806	-0.006409	0.001526	-0.010834	-0.084076	0.025177	0.001373	-0.02182	-0.071869	0.005188	0.13428	-0.076141	-0.22919	-0.011444	-0.031433	-0.10773	0.24872	0.070953	-0.18524	-0.32623	0.1445	0.085602	-0.018768	-0.45578	-0.23651	0.059357	-0.95261	-0.12146	-0.001221	0.00412
25.343	0.017395	0.064087	-0.023651	0	0.006409	-0.045013	-0.071564	0.023193	0.028229	-0.022278	0.093842	0.012054	0.039978	-0.046692	-0.014343	-0.010071	-0.04303	-0.16922	-0.038605	0.090332	0.033722	-0.20325	0.22171	0.16296	-0.075226	-0.49515	-0.027161	-0.36591	0.011139	-0.086975	-0.000305	-0.004272
25.344	0.014343	0.004883	-0.049744	0.009308	0.001068	-0.019531	-0.12344	-0.005798	0.023956	-0.00412	0.16373	0.001984	0.00412	-0.003815	0.005341	-0.004578	-0.043335	-0.2359	-0.61478	0.069275	0.1561	-0.014954	0.20523	0.11414	-0.020142	-0.37766	-0.005341	-0.075073	0.36423	-0.46188	-0.00412	0.004883
25.345	0.013275	-0.005798	-0.049591	-0.002441	0.002747	-0.023499	-0.12497	0.023041	0.034332	-0.005035	0.081635	0.010376	0.028687	0.063477	0.065002	-0.001831	0.002899	-0.24292	-0.67627	-0.021973	0.032501	0.046234	0.26276	0.029907	-0.040436	0.10895	-0.022888	0.092926	0.039978	-0.27969	0.001068	-0.001221
25.346	0.016632	-0.046082	-0.047607	0.007019	0.002289	-0.032196	-0.069885	0.025787	0.041656	0.022278	0.11704	0.006866	0.039063	0.10468	0.33203	-0.007019	-0.003204	-0.19577	-0.37262	-0.0914	-0.036774	0.22598	0.18341	-0.010071	-0.11841	0.19577	-0.044098	0.22736	1.0161	-0.46631	0.00061	0.001984
25.347	0.012817	-0.076904	-0.028381	0.013123	-0.000458	-0.028839	-0.014801	0.02243	0.055084	0.014801	0.16007	0.002594	0.078888	0.068512	-0.3624	-0.010529	0.012054	-0.21316	-0.33615	-0.079346	-0.019531	0.40054	-0.12543	-0.18326	-0.098724	0.2449	-0.06073	0.12528	-0.43778	-0.72357	0.001068	-0.007324
25.348	0.022278	-0.10025	-0.007324	0.006256	0	-0.029602	0.008545	0.018616	0.066986	0.010529	0.13412	0.012512	0.081024	-0.018768	-0.57999	-0.010529	-0.003052	-0.14633	-0.18967	0.007172	0.044708	0.86151	-0.2449	-0.14984	-0.048218	0.26367	0.005646	0.16846	-0.23148	-0.15839	-0.005798	-0.010681
25.349	0.018921	-0.11917	-0.023956	-0.00061	0.001221	-0.040436	0.016479	0.010376	0.077057	0.014954	0.10422	0.007019	0.040741	-0.001373	0.82779	-0.00824	0.022736	-0.14923	-0.17517	0.011749	0.03479	0.5957	-0.10483	-0.1181	-0.058746	0.20584	0.066986	0.11643	0.737	0.19699	-0.000305	-0.018005
25.35	0.015564	-0.15442	-0.035248	0.009308	0.00473	-0.034332	0.049896	0.013275	0.10712	0.01297	-0.056152	0.015106	-0.010986	0.03067	-0.28763	-0.006714	0.024109	-0.17502	-0.34805	0.098114	-0.001526	0.10223	0.076599	-0.034637	-0.061951	0.22568	0.121	-0.048828	-0.11673	0.043182	-0.001526	-0.018005
25.351	0.053711	-0.12985	-0.015259	-0.00473	0.006714	-0.047913	0.067902	0.014648	0.1033	0.017548	-0.29602	0.011444	0.013428	0.039825	-0.038757	-0.016327	0.027771	-0.13367	-0.039063	0.026245	-0.036011	-0.050201	0.24078	0.020142	-0.071106	0.20065	0.11322	-0.067749	-1.0161	-0.10956	-0.001831	-0.008392
25.352	0.008545	-0.18875	-0.019073	0	-0.00061	-0.056915	0.14862	0.006866	0.12024	-0.000305	-0.074921	0.006409	0.02655	0.024872	-0.38849	-0.015564	0.026398	-0.11353	0.37918	-0.058289	0.001984	-0.051422	0.20996	0.02655	0.001068	0.1181	-0.004272	-0.12268	1.0329	0.068207	-0.00412	-0.008698
25.353	0.000153	-0.19241	-0.023346	-0.002899	-0.008392	-0.052795	0.15533	0.014954	0.12192	-0.007629	-0.010986	0.011139	0.062866	0.003967	0.22614	-0.015564	0.030365	-0.12283	-0.12558	-0.081329	0.000763	-0.089111	0.13245	-0.007477	0.056	0.1059	-0.006256	-0.080719	0.67566	0.24078	0.000763	-0.001831
25.354	0.010376	-0.20111	-0.023193	0.01297	-0.002441	-0.046539	0.1561	0.017548	0.12466	-0.015564	0.13153	0.005035	0.00412	-0.051422	0.34698	-0.010529	0.023041	-0.11826	-0.15701	-0.057373	-0.037537	-0.1181	0.10574	-0.044098	0.030212	0.090637	-0.021973	0.12085	0.032196	0.043182	-0.003052	-0.000458
25.355	0.009155	-0.20432	-0.028992	0.03067	-0.007782	-0.024719	0.14511	0.019684	0.13428	-0.012207	0.12039	0.003815	0.01236	-0.066071	0.11734	-0.007782	0.029449	-0.15533	0.058136	-0.044098	-0.065918	-0.006561	0.14114	-0.038605	0.036011	0.066681	-0.10864	0.064545	-0.26428	-0.090027	-0.00061	-0.002289
25.356	0.003815	-0.18204	-0.046082	0.045319	0.002747	-0.023346	0.072327	0.003357	0.13351	-0.007629	-0.039368	0.010223	0.05661	-0.092316	-0.055237	-0.009155	0.036011	-0.049896	0.016174	0.006256	-0.089874	0.075226	0.15778	-0.045929	0.033417	0.048065	-0.080109	0.007629	-1.2804	-0.006256	-0.002747	-0.003204
25.357	0.007019	-0.20462	-0.072021	0.036926	0.000305	-0.024414	0.018616	0.009155	0.14526	-0.034637	-0.028229	0.020752	0.083923	-0.053711	-0.15549	-0.005035	0.016632	0.007782	0.082092	0.064087	0.000153	-0.027466	0.072021	-0.088043	-0.004578	0.049438	-0.054321	-0.010376	-0.20767	0.049744	-0.004578	-0.003815
25.358	0.017548	-0.20981	-0.093536	-0.000153	0.013123	-0.022888	0.015717	0.002441	0.14587	-0.028687	-0.023804	0.004578	0.086365	0.029602	-0.084381	0.004272	0.005035	0.011902	0.098724	0.16907	0.006561	-0.15411	-0.11505	-0.10376	-0.046692	0.03067	-0.055847	-0.017242	0.75516	0.11505	0.002747	-0.010071
25.359	0.014954	-0.21286	-0.074615	-0.001068	0.003204	-0.009155	-0.013123	0.00351	0.15015	-0.028229	-0.14023	0.008392	0.12695	0.047607	-0.07843	-0.000458	0.004272	-0.051575	0.084534	0.1265	0.047455	-0.18326	-0.19516	-0.045319	-0.027466	0.027008	0.028534	-0.024414	0.17029	0.14114	0	-0.00351
25.36	0.008545	-0.21896	-0.063477	0.003204	0.015106	0.002136	-0.054779	0.016632	0.14725	-0.021973	-0.12634	0.004883	0.075684	0.010223	-0.05661	0.001221	0.011597	-0.091705	0.30731	0.017395	0.037994	-0.12085	-0.3566	-0.084991	0.00412	0.028076	0.045624	-0.02594	-0.16708	-0.010986	0.000458	-0.001678
25.361	0.011749	-0.21606	-0.067444	-0.007172	0.006561	0.005493	-0.059509	0.017242	0.14389	-0.019226	0.048676	0.003662	0.006866	-0.021362	-0.13107	-0.003815	0.027161	-0.12482	0.040436	-0.020905	-0.07431	-0.005493	-0.21164	-0.096283	0.015564	0.026855	-0.033569	-0.02243	0.36346	-0.019531	-0.005951	0.007019
25.362	0.00946	-0.20447	-0.063782	-0.00061	-0.023956	-0.043335	-0.033875	0.022278	0.15076	-0.047913	0.068359	0.005951	0.020752	-0.023499	0.10956	0.005188	0.039063	-0.077667	0.3595	-0.088501	-0.19287	0.19836	-0.031891	-0.13229	0.034027	0.021362	-0.19608	-0.009613	-0.15167	0.040588	0.001831	-0.002899
25.363	0.009613	-0.14496	-0.043182	0.016479	-0.000305	-0.048218	-0.029297	0.016785	0.14099	-0.099335	0.069122	0.007324	0.072021	0.033722	0.16876	0.015564	0.04425	0.081329	0.23453	-0.024567	-0.16708	-0.016022	0.010986	-0.13046	0.046844	0.01297	-0.21393	-0.016174	-0.34195	0.015717	-0.001526	0.010376
25.364	0.014191	-0.16815	0.027008	0.014496	-0.002747	-0.047913	-0.024719	0.014954	0.14847	-0.1294	0.095978	0.001373	0.12787	0.041962	0.17181	0.01236	0.021973	0.082245	0.080261	0.084229	-0.062256	-0.26749	-0.018463	0.042267	0.087585	0.005493	-0.15808	-0.016785	-0.20523	0.033875	-0.001831	-0.000458
25.365	0.019684	-0.17349	0.03067	0.005493	0.004578	-0.037842	-0.012207	0.014801	0.14847	-0.059509	0.097198	0.006409	0.16007	0.006256	0.15366	0.010376	-0.008392	0.050354	-0.20844	0.072784	0.033569	-0.23743	0.028687	0.13062	0.039368	0.004425	-0.016632	-0.016785	-0.36926	0.044556	0.000153	-0.002289
25.366	0.011444	-0.19898	-0.028687	-0.005035	0.009918	-0.027161	0.004425	0.007935	0.14023	-0.003052	0.043945	0.007629	0.14023	-0.04303	0.13077	0.008087	-0.023956	-0.04303	0.066681	-0.045929	0.12253	-0.13458	0.004578	0.087433	0.018463	0.003204	0.22964	-0.019379	-0.95459	0.046539	-0.001068	-0.008392
25.367	0.009003	-0.18234	-0.01709	-0.007629	0.002747	-0.028076	0.005798	0.006256	0.1413	0.017395	0.031128	0.005341	0.089874	-0.058289	0.028687	0.019226	-0.022125	-0.02655	0.11643	-0.035858	0.094604	0.032196	0.022736	0.078583	-0.018616	-0.000458	0.29098	-0.015259	-0.65323	0.074158	-0.002441	-0.01236
25.368	0.00885	-0.15884	-0.027008	-0.007324	-0.006866	-0.005951	-0.00824	0.016632	0.12543	0.015106	0.02594	0.006866	0.039978	-0.072632	-0.065002	0.022888	0.002594	-0.031738	0.05661	-0.041809	0.072327	0.069427	0.078735	0.044708	-0.025787	-0.004425	0.24567	-0.014648	1.8127	0.12802	0.000763	-0.006104
25.369	0.010834	-0.12405	-0.015106	-0.013123	-0.002747	-0.013123	-0.009155	0.010986	0.12894	0.02121	0.03952	0.010223	0.068665	-0.065155	0.015259	0.016174	0.010681	-0.076752	-0.01709	-0.022888	-0.020752	0.073853	0.043793	0.077515	0.007172	-0.014954	0.23346	-0.011749	1.4461	-0.02182	0.002747	-0.011749
25.37	0.004578	-0.10803	0.023804	-0.017548	-0.023041	-0.037994	-0.023041	0.009918	0.12375	-0.009003	0.066681	0.006866	0.096436	-0.039978	-0.058289	0.014343	0.014191	0.030975	-0.14938	0.014801	-0.029449	0.042419	0.061798	0.041351	0.039673	0.039215	0.2179	-0.012817	0.47653	-0.040588	-0.000458	-0.011444
25.371	-0.000763	-0.10498	0.03479	0.009003	-0.033112	-0.056305	-0.016022	0.009918	0.14282	-0.010376	0.061646	0.00885	0.097198	-0.017395	-0.21088	0.008087	0.005035	0.044708	0.1445	0.054016	-0.067139	-0.12131	0.005035	0.02182	0.037994	0.018463	-0.16388	-0.011597	1.0776	-0.025635	-0.00061	-0.014801
25.372	0.003815	-0.11887	0.048523	0.01236	-0.007019	-0.077209	-0.015869	0.007935	0.15015	-0.010681	0.039825	0.005493	0.084381	0.004883	-0.16525	0.020447	-0.019836	-0.007172	0.068054	-0.001526	0.008392	-0.078278	-0.088501	0.1152	0.09552	0.027466	-0.3627	-0.016327	-0.16434	-0.039368	0	-0.008545
25.373	0.006561	-0.098877	0.079041	0.001678	-0.016785	-0.092926	-0.036469	0.019836	0.14893	-0.011597	0.023499	0.001984	0.062561	-0.016785	-0.068512	0.024872	-0.010986	-0.10696	0.2182	0.012665	0.032043	0.024719	0.019073	0.14343	0.06485	-0.036621	-0.001831	-0.024719	-1.2215	-0.06485	-0.001678	-0.003357
25.374	0.009766	-0.11063	0.038452	0.002594	0.015106	-0.11398	-0.027161	0.007782	0.1474	-0.006409	-0.01236	0.00412	0.030518	-0.02594	0.030518	0.012665	-0.016327	-0.12238	0.025024	0.023346	-0.05249	0.11276	0.020905	0.16251	0.07843	-0.15427	0.12558	-0.02594	-0.38101	0.13367	0	-0.001831
25.375	0.022736	-0.11917	-0.002289	-0.003357	0.00824	-0.09079	-0.03418	0.004425	0.14816	0.010834	-0.002747	0.001984	-0.005798	0.017242	0.067749	0.019379	-0.012512	-0.1149	-0.30167	0.04715	-0.031586	0.24765	-0.035706	0.16922	0.081482	-0.14908	0.2005	-0.028381	-0.73425	0.33325	0.000916	-0.024872
